<svg xmlns="http://www.w3.org/2000/svg" width="1105" height="581" viewBox="0 0 1105 581">
  <g fill="none" fill-rule="evenodd">
    <path stroke="#A7A7A7" stroke-width="3" d="M775.5,383.5 L1002.5,469.5 M1095.5,424.5 L1000.5,474.5 M1012.5,406.5 L1097.5,426.5 M1012.5,402.5 L1002.5,470.5 M800.5,301.5 L854.5,496.5 M752.5,479.5 L673.5,464.5 M771.5,376.5 L671.5,464.5" opacity=".401" stroke-linecap="square"/>
    <path stroke="#B1B1B1" stroke-width="3" d="M799.5,298.5 L767.5,378.5" opacity=".501" stroke-linecap="square"/>
    <path stroke="#A7A7A7" stroke-width="3" d="M674.5,464.5 L674.5,573.5 M554.5,398.5 L676.5,463.5 M767.5,382.5 L560.5,402.5 M573.5,180.5 L672.5,463.5 M575.5,183.5 L355.5,351.5" opacity=".401" stroke-linecap="square"/>
    <path stroke="#979797" stroke-width="3" d="M432.5,265.5 L532.5,254.5" opacity=".441" stroke-linecap="square"/>
    <path stroke="#A7A7A7" stroke-width="3" d="M579,119.5 L574.300781,182.640625" opacity=".401" stroke-linecap="square"/>
    <path stroke="#A6A6A6" stroke-width="3" d="M362.5,348.5 L119.5,310.5" opacity=".401" stroke-linecap="square"/>
    <path stroke="#BABABA" stroke-width="3" d="M117.5,311.5 L14.5,254.5" opacity=".401" stroke-linecap="square"/>
    <path stroke="#B3B3B3" stroke-width="3" d="M44.5,362.5 L122.5,304.5" opacity=".401" stroke-linecap="square"/>
    <path stroke="#BCBCBC" stroke-width="3" d="M315.5,151.5 L360.5,349.5" opacity=".401" stroke-linecap="square"/>
    <path stroke="#A0A0A0" stroke-width="3" d="M318.5,148.5 L248.5,223.5" opacity=".401" stroke-linecap="square"/>
    <path stroke="#AFAFAF" stroke-width="3" d="M460.5,15.5 L369.5,180.5" opacity=".401" stroke-linecap="square"/>
    <path stroke="#ADADAD" stroke-width="3" d="M319.5,151.5 L372.5,183.5" opacity=".401" stroke-linecap="square"/>
    <path stroke="#868686" stroke-width="3" d="M371.5,187.5 L361.5,343.5" opacity=".401" stroke-linecap="square"/>
    <path stroke="#979797" stroke-width="3" d="M379.5,179.5 L464.5,148.5" opacity=".401" stroke-linecap="square"/>
    <path stroke="#A0A0A0" stroke-width="3" d="M366.5,346.5 L430.5,261.5" opacity=".401" stroke-linecap="square"/>
    <path stroke="#A6A6A6" stroke-width="3" d="M425.5,258.5 L433.5,209.5" opacity=".401" stroke-linecap="square"/>
    <path stroke="#3E3D3D" stroke-width="3" d="M779.5,383.5 L781,385" opacity=".401" stroke-linecap="square"/>
    <path stroke="#A7A7A7" stroke-width="3" d="M772.5,376.5 L843.5,497.5 M576.5,180.5 L771.5,390.5" opacity=".401" stroke-linecap="square"/>
    <circle cx="456.5" cy="20.5" r="20.5" fill="#3F3F3F" fill-rule="nonzero"/>
    <circle cx="370.5" cy="182.5" r="20.5" fill="#3F3F3F" fill-rule="nonzero"/>
    <circle cx="533.5" cy="254.5" r="20.5" fill="#3F3F3F" fill-rule="nonzero"/>
    <circle cx="120.5" cy="307.5" r="20.5" fill="#232323" fill-rule="nonzero"/>
    <circle cx="20.5" cy="254.5" r="20.5" fill="#252525" fill-rule="nonzero"/>
    <circle cx="798.5" cy="297.5" r="20.5" fill="#3F3F3F" fill-rule="nonzero"/>
    <circle cx="551.5" cy="401.5" r="20.5" fill="#000000" fill-rule="nonzero"/>
    <circle cx="551.5" cy="401.5" r="20.5" fill="#3F3F3F" fill-rule="nonzero"/>
    <circle cx="430.5" cy="205.5" r="12.5" fill="#3F3F3F" fill-rule="nonzero"/>
    <circle cx="44.5" cy="359.5" r="12.5" fill="#2B2B2B" fill-rule="nonzero"/>
    <circle cx="424.5" cy="261.5" r="13.5" fill="#3F3F3F" fill-rule="nonzero"/>
    <circle cx="357.5" cy="348.5" r="13.5" fill="#3F3F3F" fill-rule="nonzero"/>
    <circle cx="672.5" cy="463.5" r="13.5" fill="#000000" fill-rule="nonzero"/>
    <circle cx="672.5" cy="463.5" r="13.5" fill="#3F3F3F" fill-rule="nonzero"/>
    <circle cx="1091.5" cy="423.5" r="13.5" fill="#3F3F3F" fill-rule="nonzero"/>
    <circle cx="742.5" cy="477.5" r="13.5" fill="#3F3F3F" fill-rule="nonzero"/>
    <circle cx="674.5" cy="573.5" r="7.5" fill="#3F3F3F" fill-rule="nonzero"/>
    <circle cx="1010.5" cy="404.5" r="7.5" fill="#3F3F3F" fill-rule="nonzero"/>
    <circle cx="579.5" cy="123.5" r="7.5" fill="#3F3F3F" fill-rule="nonzero"/>
    <circle cx="249.5" cy="221.5" r="12.5" fill="#272727" fill-rule="nonzero"/>
    <circle cx="574" cy="183" r="16" fill="#3F3F3F" fill-rule="nonzero"/>
    <circle cx="1001.5" cy="470.5" r="20.5" fill="#000000" fill-rule="nonzero"/>
    <circle cx="1001.5" cy="470.5" r="20.5" fill="#3F3F3F" fill-rule="nonzero"/>
    <circle cx="766.5" cy="382.5" r="25.5" fill="#000000" fill-rule="nonzero"/>
    <circle cx="766.5" cy="382.5" r="25.5" fill="#3F3F3F" fill-rule="nonzero"/>
    <circle cx="459.5" cy="149.5" r="25.5" fill="#3F3F3F" fill-rule="nonzero"/>
    <circle cx="309.5" cy="148.5" r="25.5" fill="#212121" fill-rule="nonzero"/>
    <g fill-rule="nonzero" transform="translate(819 477)">
      <circle cx="32" cy="32" r="32" fill="#000000"/>
      <circle cx="32" cy="32" r="32" fill="#3F3F3F"/>
    </g>
  </g>
</svg>
